<mxfile host="app.diagrams.net" modified="2023-10-10T01:28:53.707Z" agent="Mozilla/5.0 (Windows NT 10.0; Win64; x64) AppleWebKit/537.36 (KHTML, like Gecko) Chrome/115.0.0.0 Safari/537.36" version="21.7.5" etag="N1SIZE3hbNEwqY3pIWi3" type="github">
  <diagram name="Page-1" id="er8t7Jm2L3N7vlAsAQ3y">
    <mxGraphModel>
      <root>
        <mxCell id="0" />
        <mxCell id="1" parent="0" />
      </root>
    </mxGraphModel>
  </diagram>
</mxfile>
